<?xml version="1.0" encoding="UTF-8" standalone="no"?>
<svg id="svg2" xmlns:rdf="http://www.w3.org/1999/02/22-rdf-syntax-ns#" xmlns="http://www.w3.org/2000/svg" height="3657pt" width="4646pt" version="1.1" xmlns:cc="http://creativecommons.org/ns#" xmlns:dc="http://purl.org/dc/elements/1.1/" viewBox="0 0 4646 3657">
<path id="path4" fill-opacity=".98039" fill="#261d1a" d="m1949.8 17.522c-2.6371-0.0311-5.3328 0.26094-8.089 0.94844-43.31 22.45-83.14 52.58-124.75 78.48-19.98 9.91-24.88 37.73-13.83 55.95 55.84 89.19 109.19 180.17 154.98 274.96-148-84.96-294.8-172.3-440.1-261.86-41.02-29.43-94.36-24.971-141.45-16.441-47.89 8.03-106.29 7.3103-136.97 52.02-132.97 229.6-257.74 463.88-390.28 693.71-190.18 51.85-381.26 101.93-571.71 153.28-49.92 17.04-99.341 36.07-145.83 61.18-33.72 18.99-67.27 41.03-89.78 73.23-16.77 23.11-23.709 53.971-14.409 81.461 21.09 60.01 35.96 123.04 34.93 186.99 1.69 27.59 23.33 47.05 44.9 61.17 30.91 27.05 62.349 53.8 92.509 81.55 181.84 366.41 357.65 736.22 513.23 1114.7 35.21 65.85 80.679 126.67 136.87 176.12 230.52 222.07 475.38 429.89 735.99 616.01 84.73 64.12 182.42 114.15 288.21 130.8 86.53 13.88 176.03 5.5406 259.67-19.909 549.88-234.57 1085.8-500.55 1614-779.97 77.66-50.08 125.56-133.66 158-218.03 17.81-45.24 28.76-92.68 42.88-139.12 88.04-302.35 196.34-598.36 311.81-891.21 1.87-3.67 1.9109-9.27 6.9609-10.15 96.48-35.54 193.08-70.78 289.56-106.3 15.02-5.77 30.32-17.09 31.65-34.43 3.25-48.27 11.24-96.93 31.83-141.07 13.15-55.75-26.45-113.45-77.7-133.48-511.39-227.02-1002.9-494.95-1500.8-749.26-59.18-24.74-125.5-31.841-188.47-19.211-53.82 11.79-107.36 24.82-161.09 37-2.66 0.33-4.9709 0.15031-7.2109-0.92969-235.91-123.79-470.13-251.28-697.05-391.04-11.694-7.425-24.27-17.001-38.511-17.169zm-4.0812 10.717c14.72 0.06751 28.202 12.278 40.292 19.761 341.89 214.1 702.64 395.56 1060.8 580.16 40.87 21.37 85.37 39.391 116.3 75.061 25.29 23.55 43.519 54.45 64.719 81.92 184.81 247.79 378.45 488.92 578.32 724.7 19.57 28.84 29.861 63.349 33.141 97.839 3.66 36.12 0.2094 75.8-21.341 106.28-13.84 19.55-38.859 23.42-59.739 31.3-18.65 2.47-38.781 7.3509-56.711-0.8391-44.33-16.35-76.09-53.551-103.7-90.261-187.27-274.39-370.83-551.73-538.01-838.94-3.8-6.27-10.981-15.38-3.1109-21.5 28.46-27.68 66.86-43.641 93.22-73.761-39.83 22.97-77.74 52.221-123.73 61.481-13 3.07-24.5-4.47-35.2-10.42-385.9-207.63-769.3-420.29-1143.4-648.64-11.2-8.51-24.68 1.78-30.73 11.5 11.44-7.18 26.07-3.9188 36.22 4.0312 367.41 224.62 741.55 438.21 1122 640.04 24.26 15.34 56.68 18.821 73.82 44.191 168.94 273.12 341.39 544.07 517.08 812.9 30.96 47.89 69.93 99.509 128.88 112.24-30.92 1.06-71.339-0.5894-92.789-28.359-182.99-274.25-376.72-541.09-569.44-808.51-39.67-30.23-80.989-58.54-121.96-87.05-309.02-187.16-616.45-377.27-933.68-550.33-10.36-4.72-19.43-12.679-30.85-14.759-7.42 4.38-0.1012 14.54 2.6188 20.03 49.51 70.99 95.961 144.53 135.21 221.67-31.24-16.61-61.67-34.919-92.43-52.459-6.15-2.98-8.0206-10.321-11.241-15.781-51.26-93.05-105.4-184.55-163.27-273.66-2.62-4.13-5.0494-8.4703-6.2594-13.22-5.6-13.53 0.5391-33.69 15.339-40.75 38.71-20.79 76.9-43.739 109.22-73.739 3.5269-1.485 6.9905-2.1171 10.388-2.1016zm-521.4 129.5c21.337-0.0868 42.213 3.3569 61.738 14.228 400.56 239.78 809.49 465.23 1216.9 693.12 21.44 10.92 33.231 33.75 36.191 56.83 5.74 46.03-11.29 89.96-21.1 134.08-88.23 367.13-177.77 733.94-265.91 1101.1-15.44 59.31-59.64 116.06-121.9 129.09-24.38 3.17-49.331 3.4794-73.531 1.0094-30.52-3.45-63.01-11.04-85.48-33.37-13.51-12.12-19.68-32.439-14.13-49.839 90.63-376.39 181.41-752.76 271.73-1129.2 6.69-44.87 10.37-99.69-26.53-133.02-340.8-232.32-693.25-450.93-1069.7-621.33-22.27-10.5-51.241-12.151-71.461 3.7094-12.74 9.13-20.059 23.33-27.109 36.88-92.05 167.6-184.08 335.2-276.09 502.81-1.7 4.99-7.63 4.9203-11.75 6.3703-22.47 5.62-44.73 12.06-67.17 17.73 125.22-219.81 251.42-439.2 377.12-658.79 3.2-5.39 6.19-10.99 10.15-15.87 13.98-22.46 36.07-44.369 64.27-44.689 30.376-3.0341 62.548-10.701 93.733-10.828zm-100.9 35.306c-9.087-0.0984-18.139 2.3391-25.784 7.6922 17.97-0.46 36.26 3.1891 51.33 13.339 377.86 208.53 751.82 424.08 1121.9 646.05 29.41 17.47 64.461 38.171 71.841 74.261 3.39 22.62-2.1803 45.439-8.1203 67.189-107.46 382.52-208.3 766.89-315.51 1149.5-9.39 31.76-14.841 66.69-3.8609 98.75 6.56 18.42 23 31.801 41.67 36.611 5.46-2.5-6.8594-3.98-7.7594-6.5-34.82-27.51-28.82-77.9-18.07-115.87 113.55-404.33 225.93-809.01 340.14-1213.1 48.44-0.41 100.4-3.9906 146.96-19.641-1.45-0.46-2.89-0.83968-4.3-1.1797-47.65 0.91-96.891 8.0703-143.24-6.5797-15.5-27.79-45.939-41.25-71.969-57.15-377.8-228.58-759.7-450.27-1146.2-663.8-8.3937-6.0722-18.737-9.4401-29.036-9.5516zm644.94 83.973c4.662-0.0511 8.7447 2.9238 12.805 4.9188 60.04 33.66 119.54 68.29 179.09 102.8 3.9 1.96 5.1797 6.4597 6.8797 10.18 19.76 47.23 42.92 93.409 67.63 137.91-22.19 4.93-44.23 10.761-66.53 15.041-22.25-11.77-44.32-24.23-65.98-37.12-39.05-76.14-79.43-152.22-131.12-220.74-2.59-3.77-6.3794-7.6588-4.8094-12.769 0.6912-0.14249 1.3684-0.21144 2.0344-0.21875zm-666.79 53.852c9.8583-0.0101 19.574 2.9178 28.47 7.1266 27.63 12.66 55.551 24.76 82.881 38.02-93.9 141.19-177.72 288.82-257.69 438.24-58.18 16.09-116.71 31.101-174.99 46.891 89.36-165.72 180.23-330.6 269.67-496.28 8.74-17.12 25.67-30.45 44.82-33.5 2.2818-0.33562 4.5641-0.49455 6.839-0.49687zm124.62 51.336c153.97 72.45 304.32 152.53 450.94 238.9-231.34 62.87-463.37 123.96-695.02 186.02 74.44-145.45 156.08-287.23 244.08-424.92zm1489 16.198c51.052-0.0359 101.98 8.7103 146.9 33.562 482.9 247.69 960.43 506.79 1455.1 730.86 27.98 12.31 56.131 28.3 74.711 53.1 17.68 21.72 16.829 52.63 8.0594 77.97-15.71 42.16-20.919 87.269-24.089 131.86-5.67 20.3-26.931 29.111-43.931 38.161-230.09 84.11-460.2 168.36-690.71 251.22 37.09-56.31 19.551-129.95-7.0094-186.82 227.45-78.6 455.69-154.97 683.46-232.68 33.44-10.38 68.38-33.711 70.67-71.691-5.28 15.31-19.861 23.77-33.241 31.12-32.96 18.57-69.14 29.99-104.7 42.32-207.44 71.73-414.78 143.8-622.04 216.08-1.3 0.28-2.63 0.64-3.85 0.3-26.83-33.43-55.48-65.431-83.12-98.191-0.59-1.03-0.1497-1.6694 1.3203-1.9094 160.53-52.7 321.19-104.98 481.91-157.07 25.83-9.47 52.619-18.9 73.609-37.37 10.46-8.65 15.121-25.58 6.5609-37.08-14.04-20.85-37.421-31.92-58.211-44.72-383.66-214.37-782.75-399.02-1177.6-591.42-70.87-37.31-153-50.919-232.3-41.359-43.25-22.5-86.52-45.031-129.77-67.541-2.42-1.28 0.8894-1.8597 2.0094-2.2797 42.32-9.7 84.291-20.979 126.71-30.189 25.964-3.7847 52.738-6.214 79.48-6.2328zm-728.25 2.8422c57.94 33.23 115.58 67.48 172.18 102.83-36.41 7.54-72.421 17.01-108.79 24.67-28.05-38.43-52.149-80.91-63.389-127.5zm190.37 114.2c41.17 22.5 81.709 48.63 121.92 73.52-60.52 14.06-120.53 32.28-181.4 43.63-41.86-23.65-85.28-46.71-125.68-71.6 60.64-15.99 123.63-30.1 185.16-45.55zm499.31 1.0266c54.031 0.39816 108.62 12.665 159.32 31.714 9.03 2.7 17.65 6.6494 26.12 10.809 376.28 180.36 758.03 350.75 1120.2 558.79 29.73 19.54 64.75 31.28 90.62 56.38 10.07 9.2 14.25 25.99 4.2297 36.87-16.31 18.54-40.821 26.219-63.191 34.839-161.34 51.11-321.83 105.56-483.22 156.03-177.51-207.27-346.94-421.8-505.77-643.78-37.07-49.68-79.97-98.66-137.87-124.12-8.92-5.71-19.62-8.7991-27.85-15.339-67.03-32.5-132.74-68.33-199.34-101.93 5.5724-0.21844 11.156-0.30524 16.745-0.26406zm-363.66 81.456c1.8763 0.0309 3.7532 0.65936 5.1719 1.8969 128.31 79.47 257.63 157.5 385.21 238.05-14.6 198.41-30.2 398.51-83.2 591.11-8.22 39.86-37.051 74.269-75.141 88.859-42.43 17.28-84.12 36.48-126.78 53.15 43.4-181.39 87.34-362.65 130.88-544 10.62-34.56 19.16-71.5 11.6-107.6-5.52-28.11-24.51-52.799-49.6-66.369-123.9-69.46-248-138.57-371.8-208.13-1.05-0.91-3.0994-1.37-3.1094-2.95 58-13.82 115.57-29.479 173.53-43.439 1.0275-0.40875 2.1523-0.60607 3.2781-0.58749zm-615.6 35.63c39.96 22.56 81.509 46.92 118.56 72.33-525.54 139.3-1049.2 285.93-1577.3 415.53-31.32 8.67-63.699 22.55-83.389 49.62-11.88 15.43-15.251 36.84-8.1906 55.1 11.56 31.5 38.48 53.8 64.15 73.85 320.33 252.6 629.65 518.75 936.22 787.78 36.02 39.06 85.479 66.491 138.64 72.341 56.53 7.29 113.34-6.6 165.47-27.8 183.27-66.68 366.86-132.57 550.9-197.05-13.45 57.84-26.749 115.82-41.589 173.3-216.89 79.81-433.5 160.46-649.54 242.54-61.28 24.71-130.52 23.33-193.67 6.4703-30.16-8.79-60.86-20.85-83.18-43.83-365.97-342.1-743.91-671.7-1135.2-984.7-29.569-26.6-38.02-68.5-37-106.7-3.28 21.15-5.3794 47.17-3.9094 70.37 1.7 15.69 7.3497 31.97 20.88 41.37 398.44 317.37 778.48 657.61 1144.8 1011.2 33.5 47.06 96.109 57.769 150.04 55.669 38.67-1.48 76.821-9.4488 113.86-20.319 222.51-86.72 445.38-172.87 669.43-255.46-6.06 33.37-18.15 65.86-21.05 99.65 5.4 45.19 51.839 70.271 88.859 83.991-233.53 87.37-466.26 176.86-698.49 267.58-37.8 11.28-78.87 21.041-117.4 17.741-56.15-3.12-107.33-31.731-151.61-64.481-374.85-347.03-754.34-689.16-1140.9-1023.1-16.94-13.89-39.061-27.179-41.891-51.039 2.19-54.41-5.61-108.93-19.55-161.51-4.6-19.02-12.629-37.74-11.689-57.65 2.53-35.52 27.27-64.749 54-86.089 74.8-58.18 168.61-82.22 258.7-105.3 513.61-137.2 1027.3-274.24 1541.1-411.33zm135.81 82.533c2.192 0.0395 4.1228 1.7487 6.0078 2.8375 115.19 72.49 228.67 147.71 339.93 226.1 37.77 28.36 40.481 80.95 30.441 123.35-50.49 213.26-101.7 426.35-152.42 639.56-1.65 2.77-0.2809 7.7794-3.3609 9.6594-302.38 116.28-608.65 222.29-916.25 323.87-3.69 0.7-9.1697 4.38-12.43 0.85-288.8-255.3-580.69-507.6-885.9-743.3-32.47-23.71-66.509-59.311-60.059-102.94 9.07-39.73 50.91-57.609 86.95-65.159 527.58-115.87 1045-271.67 1565.6-414.53 0.5362-0.19687 1.0566-0.2763 1.5625-0.26718zm878.97 126.84c37.75 24.45 75.29 49.439 112.65 74.459 83.01 117.82 168.1 234.37 250.39 352.59 54.56 75.62 107.82 152.52 161.02 229.25-25.83 8.9-51.861 17.469-77.931 25.519-98.76 33.68-198.14 65.63-297.01 99.05-61.86-26.79-121.58-59.01-176.13-98.78-28.56-17.44-61.58-46.129-52.52-83.589 51.81-195.19 70.55-397.43 79.53-598.5zm531.28 669.4c26.47 32.82 52.261 72.96 75.491 109.33-333.3 117.11-666.2 235.57-998.47 355.54 13.07-54.52 26.38-108.99 39.3-163.55 0.35-1.84 1.1106-3.68 3.1906-4 292.86-100.97 586.44-199.89 880.49-297.32zm-633.27 0.2656c25.862 0.3066 51.056 10.451 72.006 25.394 51.82 34.49 106.75 65.161 163.02 90.941-160.01 53.47-319.85 107.51-479.75 161.27 16.01-66.26 31.41-132.74 48.13-198.77 47.4-20.78 94.82-41.67 141.98-63.07 13.06-5.77 25.62-13.571 40.2-14.891 4.8125-0.65 9.6247-0.9302 14.414-0.8735zm1423 73.524c-106.5 271.69-209.22 545.41-292.63 825.26-17.72 56.28-31.679 113.71-50.309 169.69-31.4 86.36-74.881 173.75-150.31 229.7-523.26 279.88-1056.4 542.61-1605.4 768.6-76.45 23.35-157.76 31.55-237.21 22.5-74.33-8.93-149.58-34.399-212.75-70.709-32.4-15.5-61.3-37.6-91.4-57.1-255.8-169.6-492.5-367.6-707.05-587-58.64-58.1-108.68-124.5-152.97-194-158.57-356.63-325.4-709.53-495.14-1060.9-0.34-1.82-5.9506-10.67 0.01-4.9 338.16 297.87 669.53 603.56 997.91 912.03 37.4 36.94 85.96 61.77 137.1 72.83 62.01 11.12 126.01 0.7391 183-25.211 231.45-93.01 463.94-183.4 696.99-272.26 28.5 0.01 57.79 1.6894 85.47-7.1906 34.56-10.8 64.92-32.3 89.88-58.18 2.06-2.25 5.03-3.2203 7.85-4.1703 597.07-224.94 1197.6-440.71 1797-658.93zm-505.66 17.942c-1.5682 0.033-3.144 0.1607-4.7234 0.3876-12.41 1.45-23.25 11.441-25.48 23.781-5.9 29.82 24.74 59.949 54.48 52.909 14.86-2.83 25.02-18.84 22.73-33.52-1.8094-23.4-23.482-44.058-47.006-43.558zm-7.0484 10.067c24.938-0.2944 47.254 31.536 33.634 53.82-15.23 16.84-41.88 1.7412-48.98-15.869-7.81-12.75-5.35-34.57 11.65-37.67 1.2352-0.1749 2.4689-0.2668 3.6953-0.2813zm-192.94 19.874c0.6563-0.038 1.2854 0.1025 1.7204 0.6875 23.31 33.2 44.421 68 68.541 100.63 28.16 25.53 72.15 26.59 105.23 30.43-418.79 151.68-837.32 304.08-1254.8 459.29 10.01-15.87 19.159-32.38 24.609-50.43 14-59.46 28.801-118.73 42.661-178.22 0.62-5.7 7.6594-6.15 12.009-8.05 331.69-120.87 664.68-238.14 998.16-353.96 0.54-0.125 1.2234-0.3406 1.8796-0.3781zm-1278.5 107.88c-13.43 56.21-26.99 112.41-40.17 168.68-0.42 3-4.1794 2.98-6.1594 4.1-182.4 63.09-364.56 126.8-546.39 191.5-73.47 25.63-156.86 32.669-230.15 2.8094-27.84-11.95-56.329-25.55-78.069-46.97 301.91-100.45 603.04-203.75 899.41-319.66 0.38-0.11 1.1497-0.3494 1.5297-0.4594zm1591.3 135.99c-3.5372 0.033-7.069 0.2503-10.578 0.6562-54.36 4.96-101.66 39.62-134.56 81.5-34.36 44.8-56.36 102.21-49.38 159.25 3.82 31.11 18 62.399 44.15 80.919 26.91 19.5 62.57 22.931 94.22 14.841 68.97-18.16 122.56-75.81 148.13-140.9 18.76-47.46 22.859-105.38-5.1906-150.11-17.971-29.58-52.597-46.472-86.791-46.156zm17.041 19.945c42.48 10.7 67.13 54.82 67.62 96.52 1.54 76.58-46.229 150.92-113.81 185.68-39.72 20.64-95.321 21.3-126.21-15.08 42.55 11.33 86.741-6.83 119.49-33.65 42.95-34.77 72.469-86.9 77.859-142.12 4.02-32.14-4.43-66.03-24.95-91.35zm-57.68 0.6703c28.98 1.04 52.851 25.96 61.361 52.65 19.51 69.84-21.511 145.28-81.091 181.64-34.52 22.04-85.719 26.81-115.76-5.25-24.23-95.32 42.859-201.41 135.49-229.04zm-375.85 173.2c-4.3696 0.012-8.7376 0.29-13.069 0.8375-47.48 5.13-89.79 33.069-121.03 68.039-50.07 56.23-80.249 141.27-48.809 213.64 19.21 44.61 72.349 67.59 118.74 56.28 78.5-16.62 138.4-84.521 161.91-159.09 14.61-46.73 13.86-102.48-17.3-142.53-19.162-24.325-49.856-37.258-80.442-37.177zm17.712 20.056c35.77 9.43 60.56 43.96 65.1 79.7 9.37 62.64-20.271 125.51-64.341 168.69-31.35 29.61-73.46 51.68-117.7 47.48-20.93-2.67-41.999-12.029-55.359-28.689 41.63 10.76 84.899-6.7512 117.22-32.631 35.53-28.07 61.161-67.979 73.631-111.37 11.58-41.13 8.86-88.711-18.55-123.18zm-59.741 0.7c33.97-0.03 60.449 32.511 65.559 64.291 11.67 66.94-27.739 135.84-84.409 170.05-34.58 21.94-87.45 26.97-115.83-6.95-22.62-94.76 43.34-198.72 134.68-227.39zm-1044.3 25.656c-1.5936 0-3.1884 0.1216-4.7672 0.3641-36.61 5.91-53.37 57.621-28.9 84.791 9.94 12.24 28.67 15.15 42.32 7.7 27.11-13.67 36.801-52.7 19.711-77.68-6.055-9.4675-17.209-15.192-28.364-15.175zm-9.4048 12.061c42.247 0.5615 32.391 84.758-10.931 75.923-30.14-13.35-23.43-65.839 6.6797-75.709 1.4719-0.1619 2.8887-0.2321 4.2515-0.214zm656.69 123.42c-4.0088 0.052-8.0398 0.3625-12.075 0.9453-26.48 2.62-52.081 12.179-74.241 26.809-62.09 40.12-104.91 109.88-110.21 183.86-2.22 43.55 12.92 92.93 52.93 115.72 39.98 23.6 91.039 15.08 129.74-7.1203 80.57-46.48 136.1-145.32 115.22-238.81-9.9102-46.684-54.06-82.014-101.36-81.405zm16.444 20.295c43.55 10.91 68 56.859 67.72 99.369 0.1 69.97-40.56 137.34-99.17 174.4-41.72 27.23-105.49 34.831-140.68-6.6891 31.47 8.54 64.73 0.02 92.62-15.37 61.65-35.71 103.88-104.15 105.45-175.72-0.29-27.2-8.4506-54.799-25.941-75.989zm-57.63 0.5797c32.38 1.19 57.311 31.3 63.561 61.53 12.42 60.93-19.41 123.9-66.65 161.39-35.8 29.93-96.671 43.709-132.08 6.2891-14.12-44.29-2.3694-92.91 19.691-132.67 24.84-44.56 65.49-82.889 115.48-96.539zm656.2 138.46c-3.3761 0.038-6.7447 0.2406-10.091 0.6109-59.01 5.54-109.62 45.079-142.58 92.469-35.09 50.73-54.8 117.3-34.63 177.62 14.86 49.9 70.541 80.161 120.89 68.591 87.83-17.46 153.55-97.9 170.45-183.5 7.1-38.35 3.37-81.17-19.6-113.83-18.551-27.314-51.804-42.326-84.439-41.961zm17.428 19.961c60.25 15.78 78.61 89.45 62.87 143.1-14.52 57.28-52.729 108.91-105.11 136.87-40.36 22.49-97.971 24.941-130.06-12.909 39.43 10.64 80.491-4.57 112.24-27.9 44.65-33.27 76.251-84.51 84.191-139.78 5.55-34.46-1.4812-72.09-24.131-99.38zm-57.58 0.6188c27.51 0.91 50.951 23.951 59.891 49.061 16.14 45.95 0.8003 96.989-26.38 135.46-25.77 35.62-65.041 65.79-110.49 67.47-21.49 1.2-43.541-7.2394-58.341-22.909-10.26-33.25-6.2788-69.471 5.6812-101.71 21.86-58.1 68.629-110.35 129.64-127.37zm-990.89 5.2906c-3.6699 0.029-7.354 0.2726-11.034 0.7406-44.84 3.43-85.179 28.579-116.41 59.659-43.34 45.48-73.069 107.64-69.009 171.48 1.74 31.36 13.379 63.561 37.619 84.511 23.84 21.75 58.451 28.789 89.711 23.309 51.52-8.54 95.68-42.51 126.5-83.48 39.02-51.68 60.929-121.87 40.289-185.32-12.925-41.752-54.361-71.24-97.666-70.9zm15.556 20c55.71 14.1 76.43 79.91 65.73 131.1-14.37 75.03-70.55 145.66-146.83 163.13-32.33 7.36-69.11-1.4094-91.15-27.059 37.05 9.99 76.25-2.9097 106.95-24.08 39.04-26.54 67.531-66.991 82.491-111.51 13.79-43.27 13.659-95.45-17.191-131.58zm-56.72 0.6906c34 1.96 59.591 34.709 64.061 66.939 10.52 71.16-34.19 143.72-97.72 174.41-32.56 15.83-77.55 16.399-102.62-13.311-10.07-35.14-5.34-73.39 8.5-106.83 23.02-55.48 68.48-105.29 127.78-121.21zm689.65 124.16c-4.1992 0.055-8.3891 0.3531-12.539 0.8969-64.85 7.63-118.31 54.97-150.55 109.48-28.78 49.74-43 112.68-20.6 167.54 13.19 33.72 45.539 58.449 81.489 62.509 43.96 4.89 87.21-14.109 120.8-41.339 48.7-40.09 82.531-99.121 88.861-162.21 2.79-36.09-4.1806-75.43-28.891-103.23-19.355-22.514-49.176-34.033-78.57-33.647zm19.111 20.297c39.49 10.05 64.279 50.57 66.119 89.72 5.23 81.48-47.309 162.46-121.22 195.47-37.64 17.18-89.79 15.809-117.05-18.141 63.84 14.37 125.08-28.63 159.85-79.07 37.42-53.42 54.7-132.78 12.3-187.98zm-59.52 0.5297c32.5-0.03 58.04 30.22 64.45 60.35 14.31 71.63-29.92 146.52-93.25 179.09-32.98 17.12-79.56 18.81-105.63-11.38-15.13-51.19 1.6294-106.48 30.809-149.43 24.9-36.05 60.66-67.09 103.62-78.63zm-1032.7 19.519c-3.5184-0.051-7.034 0.075-10.528 0.3813-83.05 8.53-148.84 77.7-175.36 153.73-15.95 45.26-18.079 99.561 8.5109 141.26 21.87 36.32 68.119 52.3 108.74 43.98 79.96-15.31 141.28-84.55 164.81-160.15 13.3-42.89 13.619-92.76-10.441-131.95-17.454-29.77-51.72-46.761-85.731-47.252zm15.241 19.752c27.08 7.54 49.291 28.669 59.131 54.859 13.78 35.94 10.03 76.711-3.7 112.09-20.94 55.71-65.201 104.35-122.26 123.73-35.8 12.27-80.229 6.8103-105.61-23.48 28.32 8.42 58.359 1.6097 84.409-10.72 65.4-33.16 111.02-103 113.83-176.4 1.31-28.67-7.79-57.68-25.8-80.08zm-56.83 0.7906c33.96 2.44 59.53 34.78 63.92 67.08 7.6 44.4-9.4503 89.499-36.37 124.36-24.57 31.3-60.01 57.171-100.75 60.291-22.97 2.75-47.06-6.0306-63.05-22.691-13.11-45.01-1.8703-93.69 20.73-133.67 25.35-43.91 65.51-82.419 115.52-95.369zm742.8 100.84c-4.8925 0.022-9.7938 0.4026-14.661 1.1562-94.17 13.96-164.7 101.68-179.41 192.62-5.39 37.41 0.2003 78.35 23.52 109.15 27.48 36.79 79.121 46.461 121.21 32.591 68.58-21.68 120.71-80.92 144.47-147.55 13.98-40.79 17.411-87.131-0.4094-127.29-15.622-37.397-54.88-60.858-94.719-60.675zm17.969 20.595c42.06 10.47 66.33 55.16 66.63 96.37 1.34 70.15-38.949 138.48-97.539 175.93-41.46 28.45-106.59 36.051-142.1-5.4094 35.64 9.13 72.71-2.4497 102.75-21.93 52.48-34.7 88.81-93.65 94.58-156.47 3.21-31.2-5.5503-63.601-24.32-88.491zm-58.564 0.1985c19.119-0.1232 36.601 12.681 47.964 27.222 24.11 32.43 22.21 77.36 8.5203 113.73-17.67 47.32-54.91 88.921-103.25 105.76-30.18 9.83-69.44 7.1288-89.53-20.281-22.13-94.43 43.689-197.38 134.44-226.38 0.62-0.031 1.2395-0.048 1.8562-0.052zm-332.02 135.45c-4.7014-0.015-9.3965 0.2821-14.039 0.8984-94.32 13.16-165.13 100.97-180.37 191.68-7.72 47.23 4.0509 103.26 46.111 131.46 38.7 26.76 90.279 19.31 129.94-1.4203 58.5-31.84 101.89-89.199 118.48-153.51 10.87-41.61 8.9288-89.23-15.831-125.65-18.13-27.982-51.38-43.356-84.291-43.459zm16.581 20.209c24.6 6.07 45.021 24.48 55.791 47.18 17.62 37.14 14.089 81.05-0.2906 118.68-21.65 57.21-67.64 107.9-127.25 125.8-34.49 10.48-76.421 3.8797-100.39-24.62 35.53 9.15 73.02-2.1903 102.9-21.92 52.68-34.98 89.21-94.299 94.55-157.56 2.51-30.94-5.3894-63.299-25.309-87.559zm-58.559 0.6688c35.76 0.71 62.549 36.171 65.819 69.991 7.19 49.62-15.349 99.431-48.719 135.24-24.66 25.36-57.54 46.03-93.92 46.33-21.37 1.4-43.421-7.3809-57.891-23.061-10.77-35.35-5.4197-73.929 8.3703-107.71 22.59-55.16 67.911-104.19 126.34-120.79z"/>
</svg>
